<?xml version="1.0" encoding="UTF-8" standalone="no"?>
<!-- Created with Inkscape (http://www.inkscape.org/) -->

<svg
   xmlns:dc="http://purl.org/dc/elements/1.1/"
   xmlns:cc="http://creativecommons.org/ns#"
   xmlns:rdf="http://www.w3.org/1999/02/22-rdf-syntax-ns#"
   xmlns:svg="http://www.w3.org/2000/svg"
   xmlns="http://www.w3.org/2000/svg"
   xmlns:sodipodi="http://sodipodi.sourceforge.net/DTD/sodipodi-0.dtd"
   xmlns:inkscape="http://www.inkscape.org/namespaces/inkscape"
   version="1.1"
   id="svg2546"
   width="1193"
   height="704"
   viewBox="0 0 1193 704"
   sodipodi:docname="logo2.svg"
   inkscape:version="0.92.5 (2060ec1f9f, 2020-04-08)">
  <metadata
     id="metadata2552">
    <rdf:RDF>
      <cc:Work
         rdf:about="">
        <dc:format>image/svg+xml</dc:format>
        <dc:type
           rdf:resource="http://purl.org/dc/dcmitype/StillImage" />
        <dc:title></dc:title>
      </cc:Work>
    </rdf:RDF>
  </metadata>
  <defs
     id="defs2550" />
  <sodipodi:namedview
     pagecolor="#ffffff"
     bordercolor="#666666"
     borderopacity="1"
     objecttolerance="10"
     gridtolerance="10"
     guidetolerance="10"
     inkscape:pageopacity="0"
     inkscape:pageshadow="2"
     inkscape:window-width="1920"
     inkscape:window-height="1053"
     id="namedview2548"
     showgrid="false"
     inkscape:zoom="0.26068734"
     inkscape:cx="88.228296"
     inkscape:cy="352"
     inkscape:window-x="1408"
     inkscape:window-y="27"
     inkscape:window-maximized="0"
     inkscape:current-layer="svg2546" />
  <path
     style="fill:none;stroke:none"
     d="M 494.99999,548.0578 V 434.62364 l 11.25,-6.70501 c 20.037,-11.94207 42.17,-26.93346 72.2925,-48.96617 24.2761,-17.75639 29.8976,-21.45562 31.7239,-20.87597 8.168,2.59243 79.53026,51.51763 105.59881,72.39743 l 10.63481,8.51803 0.25435,111.26263 0.25435,111.26262 35.74565,-0.26262 35.74565,-0.26263 0.25192,-257.25 0.25191,-257.25 h -3.05215 c -2.40107,0 -22.03506,13.06581 -92.04037,61.25 -48.94353,33.6875 -89.76543,61.22561 -90.71533,61.19579 -0.9498,-0.0298 -41.6867,-27.59231 -90.5263,-61.25 l -88.7992,-61.19579 h -5.4352 -5.4353 v 257.5 257.5 h 36 36 z m -3,-236.95084 c 0,-23.43825 0.2726,-42.61501 0.6058,-42.61501 0.3332,0 3.9249,3.09975 7.9817,6.88833 11.2312,10.48873 24.6839,21.10293 37.4125,29.51855 6.325,4.18182 12.3777,8.2067 13.4505,8.94418 1.8054,1.24114 1.0617,1.93541 -10,9.33544 -6.5728,4.39702 -19.3755,12.41862 -28.4505,17.82579 -9.075,5.40715 -17.5125,10.48066 -18.75,11.27447 l -2.25,1.44326 z m 239.81181,39.90396 c -2.02851,-1.3789 -10.12851,-6.38193 -18,-11.11784 -21.29795,-12.814 -39.02225,-24.60865 -38.11399,-25.36298 0.44121,-0.36643 6.6522,-4.53867 13.8022,-9.27164 14.16156,-9.37429 24.35344,-17.31144 37.5,-29.20392 l 8.5,-7.68917 0.26969,21.63094 c 0.14833,11.89702 0.14833,31.05636 0,42.57633 l -0.26969,20.94537 z M 243.57979,472.74195 c 148.4188,-85.54494 150.5055,-86.79014 150.2149,-89.63989 -0.2744,-2.69062 -5.1549,-5.77292 -70.7781,-44.70026 -38.7659,-22.99571 -70.6458,-42.29742 -70.8442,-42.8927 -0.5353,-1.60575 11.7683,-12.98739 21.6662,-20.04284 12.5589,-8.95219 27.083,-17.37192 55.5214,-32.18611 40.9337,-21.32327 65.9108,-36.06149 63.972,-37.74795 -0.4576,-0.39803 -11.407,-6.5894 -24.332,-13.7586 -12.925,-7.16921 -80.3594,-44.81543 -149.8542,-83.65828 C 132.99938,59.965346 91.870079,37.491956 89.895779,37.491956 h -2.8958 v 260.999994 261 h 3.0352 c 2.2002,0 44.438001,-23.86357 153.544611,-86.75 z m -75.91851,-66.41289 c -0.8188,-37.34681 -0.8507,-65.83711 -0.074,-65.83711 1.1039,0 13.9069,7.36138 44.41251,25.53589 16.775,9.99417 31.9772,18.93129 33.7827,19.86025 1.8843,0.96956 2.9947,2.15492 2.6067,2.78272 -0.7843,1.26903 -36.7955,24.99857 -49.55371,32.65333 -7.7492,4.64946 -28.4196,15.11669 -29.9245,15.15343 -0.3238,0.008 -0.8863,-13.55892 -1.25,-30.14851 z m -0.6613,-202.82452 v -46.87657 l 11.75,7.86329 c 6.4625,4.32482 20.075,12.68733 30.25001,18.58337 18.2311,10.56425 38.2744,23.4343 39.4448,25.32794 0.8737,1.41364 -59.00371,32.69571 -76.19481,39.80686 l -5.25,2.17168 z m 810.5757,269.23741 c 148.37292,-85.51826 150.50582,-86.79101 150.21712,-89.63824 -0.2726,-2.68894 -5.1566,-5.77317 -70.774,-44.6935 -38.7646,-22.9929 -70.64445,-42.29535 -70.84415,-42.89434 -0.5372,-1.61158 11.7481,-12.98142 21.66395,-20.04961 12.5589,-8.95219 27.083,-17.37191 55.5214,-32.18611 30.4575,-15.86599 45.447,-24.23137 56.4576,-31.50817 7.4744,-4.93969 8.1334,-5.62263 6.5,-6.73619 -0.9997,-0.68155 -11.9426,-6.87326 -24.3176,-13.75935 -12.375,-6.88609 -79.3594,-44.30463 -148.85419,-83.15232 -86.15308,-48.159684 -127.27553,-70.632164 -129.25,-70.632164 h -2.8958 v 260.999994 261 h 3.03285 c 2.19716,0 44.50489,-23.9034 153.54282,-86.75 z m -75.91272,-65.5 c -0.81814,-36.29913 -0.85255,-66.75 -0.0754,-66.75 1.10391,0 13.90696,7.36138 44.41248,25.53589 16.775,9.99417 31.97721,18.93129 33.7827,19.86025 1.88435,0.96956 2.99476,2.15492 2.60676,2.78272 -0.7843,1.26903 -36.79554,24.99857 -49.5537,32.65333 -7.74965,4.6497 -28.41962,15.1167 -29.92465,15.15343 -0.3239,0.008 -0.88557,-13.14812 -1.24816,-29.23562 z m -0.66295,-203.71952 v -46.85868 l 12.26528,8.16409 c 6.7459,4.49027 19.2334,12.17964 27.75,17.08751 16.77823,9.66879 40.31604,24.68563 41.37264,26.39526 0.3899,0.63086 -4.72777,3.94358 -12.61595,8.16641 -16.70411,8.94229 -56.56307,28.85385 -63.52197,31.73241 l -5.25,2.17168 z"
     id="path2556"
     inkscape:connector-curvature="0"
     sodipodi:nodetypes="ccsccscccccccsscsccccccccsscscccccscscsscssccscsccscssscccsscsccscccccccscsccsccccsccssscccsscsscssccccccszcccc" />
</svg>
